<svg width="25" height="24" viewBox="0 0 25 24" fill="none" xmlns="http://www.w3.org/2000/svg">
<path fill-rule="evenodd" clip-rule="evenodd" d="M21.5 11.5C21.5 11.2239 21.2761 11 21 11L5 11C4.72386 11 4.5 11.2239 4.5 11.5C4.5 11.7761 4.72386 12 5 12L21 12C21.2761 12 21.5 11.7761 21.5 11.5Z" fill="#333333"/>
<path fill-rule="evenodd" clip-rule="evenodd" d="M8.85355 7.64645C8.65829 7.45118 8.34171 7.45118 8.14645 7.64645L4.29289 11.5L8.14645 15.3536C8.34171 15.5488 8.65829 15.5488 8.85355 15.3536C9.04882 15.1583 9.04882 14.8417 8.85355 14.6464L5.70711 11.5L8.85355 8.35355C9.04882 8.15829 9.04882 7.84171 8.85355 7.64645Z" fill="#333333"/>
</svg>
