<svg width="25" height="24" viewBox="0 0 25 24" fill="none" xmlns="http://www.w3.org/2000/svg">
<path fill-rule="evenodd" clip-rule="evenodd" d="M3.5 11.5C3.5 11.2239 3.72386 11 4 11L20 11C20.2761 11 20.5 11.2239 20.5 11.5C20.5 11.7761 20.2761 12 20 12L4 12C3.72386 12 3.5 11.7761 3.5 11.5Z" fill="#333333"/>
<path fill-rule="evenodd" clip-rule="evenodd" d="M16.1464 7.64645C16.3417 7.45118 16.6583 7.45118 16.8536 7.64645L20.7071 11.5L16.8536 15.3536C16.6583 15.5488 16.3417 15.5488 16.1464 15.3536C15.9512 15.1583 15.9512 14.8417 16.1464 14.6464L19.2929 11.5L16.1464 8.35355C15.9512 8.15829 15.9512 7.84171 16.1464 7.64645Z" fill="#333333"/>
</svg>
